<svg xmlns="http://www.w3.org/2000/svg" width="240" height="240" viewBox="0 0 63.5 63.5"><g stroke="#fff" stroke-linecap="round" stroke-linejoin="round"><path d="M31.75 21.167c-9.978 1.476-8.052 15.954-7.937 18.52.114 2.567-.047 5.665 3.409 5.665 3.455 0 2.743-2.293 3.948-4.146 1.205-1.853 8.4-7.484 8.518-12.102a7.938 7.938 0 0 0-7.938-7.937z" fill="#feb2b2" stroke-width="1.058"/><path d="M28.693 32.784a5.11 5.11-45 0 1-1.102-5.58 5.11 5.11-45 0 1 4.741-3.142 5.11 5.11-45 0 1 4.71 3.19m-5.509 4.885a3.187 3.187 45 0 1 .687 3.48 3.187 3.187 45 0 1-2.957 1.96 3.187 3.187 45 0 1-2.937-1.99" fill="none" stroke-width="1.059"/></g></svg>