<svg xmlns="http://www.w3.org/2000/svg" width="240" height="240" viewBox="0 0 63.5 63.5"><path d="M23.908 21.537c-1.83 0-4.689 5.49-5.547 9.608-.305 1.46-.494 3.029-.402 4.5-.189 4.046 2.005 7.304 6.14 6.024 4.136-1.28 5.202-2.78 7.653-2.745 2.451.034 3.713 1.422 7.654 2.745 3.942 1.323 6.33-1.978 6.141-6.024.092-1.47-.097-3.038-.402-4.499-.858-4.117-3.717-9.607-5.547-9.607-.028.002-.055.017-.086.017-.035-.003-.071-.017-.106-.017v-.002c-1.83 0-3.882 7.838-5.547 9.608-1.665 1.77-1.305.604-2.107.604-.803 0-.44 1.167-2.105-.602-1.666-1.77-3.718-9.608-5.548-9.608-.029.004-.07.012-.104.016-.025 0-.058-.02-.089-.02z" fill="#f687b3" stroke="#fff" stroke-width="1.059" stroke-linecap="round" stroke-linejoin="round"/></svg>