<svg xmlns="http://www.w3.org/2000/svg" width="240" height="240" viewBox="0 0 63.5 63.5"><g transform="rotate(-45 -551.688 321.215) scale(1.99874)"><path d="M27.179 259.093c.21-.21-.137.137 1.162-.146 1.596-.348 5.103-1.076 8.198 2.018 3.34 3.34 2.412 6.975 1.923 8.561-.333 1.082.139.61-.05.8-.212.211.126-.127-1.19.152-1.595.338-5.093 1.054-8.171-2.024-3.006-3.006-2.341-6.465-2.047-8.058.256-1.384-.043-1.085.175-1.303z" fill="#fed7d7" stroke="#fff" stroke-width=".53"/><circle cx="210.367" cy="163.988" r="5.957" transform="rotate(45)" fill="#edf2f7" stroke="#fff" stroke-width=".53" stroke-linecap="round" stroke-linejoin="round"/><circle cx="210.367" cy="163.988" r="2.648" transform="rotate(45)" fill="#63b3ed" stroke="#fff" stroke-width=".53" stroke-linecap="round" stroke-linejoin="round"/><circle cx="210.367" cy="163.988" r="1.324" transform="rotate(45)" fill="#2d3748"/></g></svg>