<svg xmlns="http://www.w3.org/2000/svg" width="240" height="240" viewBox="0 0 63.5 63.5"><path d="M22.93 18.721a3.307 3.307 0 0 0-3.306 3.308 3.307 3.307 0 0 0 .912 2.275 3.307 3.307 0 0 0-.825 2.179 3.307 3.307 0 0 0 .847 2.204 3.307 3.307 0 0 0-.847 2.205 3.307 3.307 0 0 0 .847 2.205 3.307 3.307 0 0 0-.847 2.205 3.307 3.307 0 0 0 .847 2.204 3.307 3.307 0 0 0-.847 2.205 3.307 3.307 0 0 0 3.307 3.307 3.307 3.307 0 0 0 3.308-3.307 3.307 3.307 0 0 0-.847-2.204 3.307 3.307 0 0 0 .847-2.205 3.307 3.307 0 0 0-.847-2.205 3.307 3.307 0 0 0 .847-2.205 3.307 3.307 0 0 0-.847-2.204 3.307 3.307 0 0 0 .847-2.205 3.307 3.307 0 0 0-.338-1.44 3.307 3.307 0 0 0 1.352.293 3.307 3.307 0 0 0 2.205-.847 3.307 3.307 0 0 0 2.205.847 3.307 3.307 0 0 0 2.204-.847 3.307 3.307 0 0 0 2.205.847 3.307 3.307 0 0 0 1.44-.337 3.307 3.307 0 0 0-.36 1.484 3.307 3.307 0 0 0 .848 2.204 3.307 3.307 0 0 0-.847 2.205 3.307 3.307 0 0 0 .847 2.205 3.307 3.307 0 0 0-.847 2.205 3.307 3.307 0 0 0 .847 2.204 3.307 3.307 0 0 0-.273.354 2.722 2.722 0 0 0-.873-.146 2.722 2.722 0 0 0-2.183 1.1 2.593 2.593 0 0 0-1.98-.924 2.593 2.593 0 0 0-2.593 2.592 2.593 2.593 0 0 0 1.11 2.126 1.507 1.507 0 0 0-.156.663 1.507 1.507 0 0 0 1.508 1.508 1.507 1.507 0 0 0 1.507-1.508 1.507 1.507 0 0 0-.1-.536 2.593 2.593 0 0 0 .74-.627 2.722 2.722 0 0 0 2.147 1.05 2.722 2.722 0 0 0 1.796-.681 3.307 3.307 0 0 0 1.81.541 3.307 3.307 0 0 0 3.307-3.307 3.307 3.307 0 0 0-.847-2.204 3.307 3.307 0 0 0 .847-2.205 3.307 3.307 0 0 0-.847-2.205 3.307 3.307 0 0 0 .847-2.205 3.307 3.307 0 0 0-.847-2.204 3.307 3.307 0 0 0 .847-2.205 3.307 3.307 0 0 0-.847-2.204 3.307 3.307 0 0 0 .345-.463 3.307 3.307 0 0 0 .003-.005 3.307 3.307 0 0 0 .101-.177 3.307 3.307 0 0 0 .09-.172 3.307 3.307 0 0 0 .01-.024 3.307 3.307 0 0 0 .32-1.41 3.307 3.307 0 0 0-3.307-3.307 3.307 3.307 0 0 0-2.204.847 3.307 3.307 0 0 0-2.205-.847 3.307 3.307 0 0 0-2.205.847 3.307 3.307 0 0 0-2.205-.847 3.307 3.307 0 0 0-2.204.847 3.307 3.307 0 0 0-2.205-.847 3.307 3.307 0 0 0-2.186.832 3.307 3.307 0 0 0-.744-.476 3.307 3.307 0 0 0-1.48-.356z" fill="#f687b3" stroke="#fff" stroke-width="1.323" stroke-linecap="round" stroke-linejoin="round"/></svg>