<svg xmlns="http://www.w3.org/2000/svg" width="240" height="240" viewBox="0 0 63.5 63.5"><g aria-label="Ψ" transform="translate(-384.852 -293.86) scale(1.99874)" style="line-height:2" font-weight="400" font-size="12.598" font-family="sans-serif" letter-spacing="0" word-spacing="0" stroke-width=".53" stroke="#fff" stroke-linecap="round" stroke-linejoin="round"><circle cx="208.432" cy="162.908" r="7.281" fill="#e2e8f0"/><path d="M207.109 158.275c-1.146-.016-1.986.89-1.986 1.986s1.136 1.99 1.986 1.985c.85-.004 1.384-.669 1.901-.507.517.162 1.466 1.063 1.125 1.781-.34.719-1.77 1.029-1.835 1.87-.066.842.889 1.986 1.986 1.986 1.096 0 1.994-1.142 1.985-1.986-.008-.844-.812-.947-.629-1.716.184-.77 1.778-.768 1.794-2.123.017-1.354-1.045-2.998-2.555-2.555-1.509.444-1.154 1.164-1.811 1.085-.657-.08-.816-1.79-1.961-1.806z" fill="#b794f4"/></g></svg>