<svg xmlns="http://www.w3.org/2000/svg" width="240" height="240" viewBox="0 0 63.5 63.5"><g transform="translate(0 -233.5)" stroke="#fff" stroke-width="1.058"><rect width="5.456" height="19.513" x="35.785" y="261.612" rx="1.072" ry="1.072" fill="#f56565" stroke-linecap="round" stroke-linejoin="round"/><path d="M33.13 250.665a8.116 8.116 0 0 0-8.116 8.116 8.116 8.116 0 0 0 .019.36 4.981 4.981 0 0 0-.93.723c-1.587 1.582-1.858 4.092-1.862 6.34 0 6.518 5.284 11.802 11.803 11.802 2.234 0 4.722-.25 6.31-1.831 1.587-1.582 1.857-4.092 1.862-6.34 0-1.669-.35-3.255-.975-4.694v-6.154a8.116 8.116 0 0 0 .005-.206 8.116 8.116 0 0 0-8.116-8.116zm-.487 2.997a17.41 17.41 0 0 1 6.31 2.235 4.412 4.412 0 0 1 .16 1.182 4.412 4.412 0 0 1-.083.843h-2.295a1.07 1.07 0 0 0-1.071 1.072v.273a11.74 11.74 0 0 0-4.91-1.227 8.116 8.116 0 0 1 1.89-4.378z" fill="#f56565" stroke-linecap="round" stroke-linejoin="round"/><path d="M26.63 253.782a17.41 17.41 0 0 0-6.116 2.527 3.895 3.895 0 0 0-.055.63 3.895 3.895 0 0 0 1.781 3.267 17.41 17.41 0 0 1 2.79-1.109 8.116 8.116 0 0 1-.016-.316 8.116 8.116 0 0 1 1.688-4.945 3.895 3.895 0 0 0-.072-.054zm6.013-.121a8.116 8.116 0 0 0-1.895 4.418c1.624.052 3.424.62 4.558 1.08 1.135.458 1.717.611 2.534 1.016a4.412 4.412 0 0 0 1.112-4.278 17.41 17.41 0 0 0-6.309-2.236z" fill="#63b3ed" stroke-linecap="round" stroke-linejoin="round"/><path d="M41.24 265.14s-1.054-2.815-3.4-4.965" fill="none"/></g></svg>