<svg xmlns="http://www.w3.org/2000/svg" width="240" height="240" viewBox="0 0 63.5 63.5"><g stroke="#fff" stroke-width="1.059"><path d="M19.315 26.723h9.79v2.381h-9.79z" fill="#fc8181"/><path d="M19.315 29.104h9.79v2.381h-9.79z" fill="#63b3ed"/><path d="M34.372 18.25a5.335 5.335 0 0 0-.457.03 6.66 6.66 0 0 0-6.66 6.66 6.66 6.66 0 0 0 6.66 6.66 6.66 6.66 0 0 0-6.66 6.66 6.66 6.66 0 0 0 6.66 6.66S44.57 46.25 44.57 31.6c0-12.821-8.159-13.404-10.199-13.35z" fill="#f6ad55" stroke-linecap="round" stroke-linejoin="round"/><path d="M28.904 28.222a.992.992 0 0 0-.318.047c-.831.272-1.15 2.416-1.27 3.222h-8.054v13.428h2.664V34.155h5.39c.44.36.439.502 1.27.774 1.564.511 5.329-3.33 5.329-3.33s-3.31-3.376-5.011-3.377z" fill="#f6e05e" stroke-linejoin="round"/></g></svg>