<svg xmlns="http://www.w3.org/2000/svg" width="240" height="240" viewBox="0 0 63.5 63.5"><g stroke="#fff" stroke-width="1.058"><path d="M36.1 21.158c6.387 1.01 11.589 20.038 8.689 23.17-1.707 1.706-5.793 0-5.793 0s.631-4.27 0-5.793c-.63-1.522-2.896-2.896-2.896-2.896s-2.896-11.585 0-14.48z" fill="#f687b3"/><path d="M30.308 18.262v11.585l-1.935 1.934a134.686 134.686 0 0 1-.174 3.296l3.267-2.334h.58l4.054 2.896s-.381-1.544-.728-3.625l-2.168-2.167V18.262z" fill="#63b3ed"/><path d="M27.412 21.158c-6.515 1.162-11.59 20.075-8.689 23.17 2.048 2.047 8.689 0 8.689 0s2.317-20.274 0-23.17z" fill="#f687b3"/></g></svg>