<svg xmlns="http://www.w3.org/2000/svg" width="240" height="240" viewBox="0 0 63.5 63.5"><g transform="rotate(-45 -551.688 321.215) scale(1.99874)" fill="#cbd5e0" stroke="#fff" stroke-width=".53" stroke-linecap="round" stroke-linejoin="round"><path d="M31.59 257.882c-.665 0-1.203.538-1.203 1.202 0 .664.87 1.202 1.202 1.202.17 0 .45 2.325.44 4.595-.012 2.163-.306 4.275-.44 4.275-.273 0-.99.443-.99.99 0 .546.314.962.99.989 1.404-.36 1.07.227 2.405.212.664 0 1.202-.538 1.202-1.202 0-.664-.87-1.202-1.202-1.202-.332 0-.273-8.87 0-8.87s.99-.442.99-.989c0-.546-.314-.963-.99-.99-1.404.36-1.07-.227-2.405-.212z"/><circle r=".766" cy="271.801" cx="32.305"/><circle cx="33.331" cy="257.438" r=".766"/></g></svg>