<svg xmlns="http://www.w3.org/2000/svg" width="240" height="240" viewBox="0 0 63.5 63.5"><g fill="#f687b3" stroke="#fff" stroke-linecap="round" stroke-linejoin="round"><path d="M28.588 23.566l-8.107 4.054-2.027 4.053 2.027 4.054h8.107l2.027 4.053 6.08 2.027 8.107-6.08-2.026-8.107-6.08-4.054z" stroke-width="1.059"/><path d="M32.642 23.566v8.107m-4.054-8.107l2.027 2.027m4.053 0l2.027-2.027m2.027 14.188l-2.027 4.053M24.535 27.62l-2.027 2.026 2.027 2.027" fill="none" stroke-width=".538"/><path d="M18.454 31.673h2.027v-2.027h2.027m2.027 2.027L22.508 33.7l2.027 2.027m0-8.107h2.026v-2.027l2.027-2.027m-2.027 4.054v8.107m0-6.081l2.027-2.026m-2.027 4.053l2.027 2.027m0-6.08l2.027 2.026m0-4.053v2.027m-2.027 6.08v2.027m4.054 2.027l6.08-6.08v-2.028h2.027m-2.027 2.027h2.027M36.695 33.7v-2.027m0 2.027h2.027" fill="none" stroke-width=".538"/><path d="M34.668 33.7v2.027h2.027m-4.053 2.027h2.026v2.026l2.027 2.027m-6.08-6.08l2.027 2.027m12.16-2.027h-2.026L40.749 33.7m0-2.027V33.7m2.027-4.054l-2.027-2.026h-4.054m2.027 6.08v2.027l2.027 2.027h-2.027m-2.027-2.027v2.027h2.027M34.668 33.7h-2.026l2.026-2.027m0-6.08v2.027l-2.026 2.026m-2.027-2.026l2.027 2.026m-4.054 2.027h2.027V33.7l-2.027 2.027" fill="none" stroke-width=".538"/></g></svg>