<svg xmlns="http://www.w3.org/2000/svg" width="240" height="240" viewBox="0 0 63.5 63.5"><g stroke="#fff" stroke-linecap="round" stroke-linejoin="round"><path d="M31.75 18.214c-5.607 0-10.152 4.545-10.152 10.152 0 3.707 2.924 7.12 6.175 8.901l1.27 8.019h2.23l-.877-6.768h1.128v-3.072c-3.482-.554-6.948-3.554-6.953-7.08a7.178 7.178 0 1 1 14.358 0c-.002 3.528-3.47 6.53-6.953 7.085v3.067h1.128l-.878 6.768h2.231l.91-5.748.36-2.282c3.247-1.78 6.17-5.187 6.175-8.89 0-5.607-4.545-10.152-10.152-10.152z" fill="#f687b3" stroke-width=".902"/><path d="M32.956 32.655a3.4 3.4 0 0 0 3.4-3.4 3.4 3.4 0 0 0-3.4-3.4 3.4 3.4 0 0 0-.44.033 2.627 2.627 0 0 0-2.564-2.065 2.627 2.627 0 0 0-2.626 2.627 2.627 2.627 0 0 0 2.24 2.594 3.4 3.4 0 0 0-.01.212 3.4 3.4 0 0 0 3.4 3.4z" fill="#fbb6ce" stroke-width=".746"/></g></svg>