<svg xmlns="http://www.w3.org/2000/svg" width="240" height="240" viewBox="0 0 63.5 63.5"><path d="M21.36 20.126a.77.77 0 0 0-.77.77v8.432c-.019 1.409.165 2.917.714 4.302a.77.77 0 0 0 .001 0c.015.037.036.099.072.183.477 1.123 1.217 2.16 2.295 2.913 1.771 1.275 3.872 1.687 5.868 1.88v3.998a.77.77 0 0 0 .77.77h2.88a.77.77 0 0 0 .77-.77v-3.999c1.996-.192 4.097-.605 5.868-1.879 1.08-.755 1.82-1.795 2.297-2.92l.001-.002a.77.77 0 0 0 .002-.003c.03-.072.043-.11.044-.112a.77.77 0 0 0 0-.001c.043-.106.09-.221.136-.35.463-1.304.62-2.7.603-4.01v-.35a.77.77 0 0 0 0-.001v-8.08a.77.77 0 0 0-.77-.77h-2.895a.77.77 0 0 0-.77.766c-.017 3.19.033 6.367-.026 9.527-.029 1.328-.72 2.664-1.81 3.334.002-.001-.003.002 0 0a.77.77 0 0 0-.002.002 4.53 4.53 0 0 1-.366.19c-.07.032-.122.057-.15.068a.77.77 0 0 0-.026.01 6.134 6.134 0 0 1-.67.241h.004l-.13.035a.77.77 0 0 0-.003.001 7.332 7.332 0 0 1-.745.168.77.77 0 0 0 0 0c-.103.019-.218.035-.344.054a.77.77 0 0 0 0 0c-.093.015-.17.025-.248.037V20.897a.77.77 0 0 0-.77-.77h-2.88a.77.77 0 0 0-.77.77v13.662l-.243-.036a.77.77 0 0 0-.001 0c-.128-.02-.245-.036-.35-.056a9.145 9.145 0 0 1-.58-.123l-.002-.001a7.648 7.648 0 0 1-.156-.042.77.77 0 0 0-.004-.001l-.13-.036a6.133 6.133 0 0 1-.67-.24.77.77 0 0 0-.025-.011 3.364 3.364 0 0 1-.156-.07l-.003-.001a4.522 4.522 0 0 1-.36-.187.77.77 0 0 0-.013-.009c.086.049.086.05.003.001l.009.006c-1.09-.67-1.781-2.006-1.81-3.334v-.002c-.058-3.16-.01-6.336-.026-9.525a.77.77 0 0 0-.77-.766h-2.887z" stroke="#fff" stroke-width="1.255" stroke-linejoin="round" fill="#718096" aria-label="Ψ" font-weight="400" font-size="12.598" font-family="sans-serif" letter-spacing="0" word-spacing="0"/></svg>