<svg xmlns="http://www.w3.org/2000/svg" width="240" height="240" viewBox="0 0 63.5 63.5"><g stroke="#fff" stroke-width=".748" stroke-linecap="round" stroke-linejoin="round"><path fill="#f6ad55" d="M18.521 27.896h26.46v-7.937H18.52z"/><path fill="#fbd38d" d="M18.521 43.542h26.46v-7.937H18.52z"/><path fill="#fed7e2" d="M18.521 30.546h26.46V22.61H18.52z"/><path d="M18.52 37.161V28.22s1.336-2.46 2.647-2.329c1.31.132 1.026 3.6 2.646 3.493 1.619-.107.69-4.745 2.645-4.657 1.957.088.776 5.681 2.646 5.82 1.87.14 1.107-4.018 2.646-4.074 1.539-.055 1.261 3.43 2.646 3.493 1.384.062 1.59-2.575 2.646-2.91 1.055-.336 1.64.841 2.646.582 1.005-.26 1.334-2.46 2.645-2.329 1.311.132 2.646 3.493 2.646 3.493v8.36z" fill="#f687b3"/></g></svg>